<mxfile host="app.diagrams.net" modified="2022-04-25T07:31:41.123Z" agent="5.0 (Windows NT 10.0; Win64; x64) AppleWebKit/537.36 (KHTML, like Gecko) Chrome/100.0.4896.127 Safari/537.36" etag="A8TrHOGz64G0L2pTRI-E" version="17.4.6" type="github">
  <diagram id="nZLM94ovh3mV7z_dbmCm" name="Page-1">
    <mxGraphModel dx="1422" dy="762" grid="1" gridSize="10" guides="1" tooltips="1" connect="1" arrows="1" fold="1" page="1" pageScale="1" pageWidth="5000" pageHeight="5000" math="0" shadow="0">
      <root>
        <mxCell id="0" />
        <mxCell id="1" parent="0" />
        <mxCell id="Yexyb0BpfmFyETItAoxo-48" value="Valid input" style="shape=umlFrame;whiteSpace=wrap;html=1;" vertex="1" parent="1">
          <mxGeometry x="44" y="1150" width="706" height="300" as="geometry" />
        </mxCell>
        <mxCell id="Yexyb0BpfmFyETItAoxo-45" value="User does not exist" style="shape=umlFrame;whiteSpace=wrap;html=1;" vertex="1" parent="1">
          <mxGeometry x="38" y="390" width="702" height="320" as="geometry" />
        </mxCell>
        <mxCell id="M2i2G8UK4aQcAIyvz-Gb-9" value="" style="endArrow=none;dashed=1;html=1;rounded=0;fontFamily=Verdana;entryX=0.5;entryY=1;entryDx=0;entryDy=0;startArrow=none;" parent="1" edge="1">
          <mxGeometry width="50" height="50" relative="1" as="geometry">
            <mxPoint x="700" y="730" as="sourcePoint" />
            <mxPoint x="702.5799999999999" y="140" as="targetPoint" />
          </mxGeometry>
        </mxCell>
        <mxCell id="M2i2G8UK4aQcAIyvz-Gb-10" value="" style="endArrow=none;dashed=1;html=1;rounded=0;fontFamily=Verdana;entryX=0.5;entryY=1;entryDx=0;entryDy=0;startArrow=none;" parent="1" source="M2i2G8UK4aQcAIyvz-Gb-37" edge="1">
          <mxGeometry width="50" height="50" relative="1" as="geometry">
            <mxPoint x="503.58000000000004" y="850" as="sourcePoint" />
            <mxPoint x="503.58000000000084" y="140" as="targetPoint" />
          </mxGeometry>
        </mxCell>
        <mxCell id="M2i2G8UK4aQcAIyvz-Gb-11" value="" style="endArrow=none;dashed=1;html=1;rounded=0;fontFamily=Verdana;entryX=0.5;entryY=1;entryDx=0;entryDy=0;" parent="1" target="M2i2G8UK4aQcAIyvz-Gb-12" edge="1">
          <mxGeometry width="50" height="50" relative="1" as="geometry">
            <mxPoint x="269" y="750" as="sourcePoint" />
            <mxPoint x="429" y="60" as="targetPoint" />
          </mxGeometry>
        </mxCell>
        <mxCell id="M2i2G8UK4aQcAIyvz-Gb-12" value="Sign-up Page" style="rounded=1;whiteSpace=wrap;html=1;flipH=0;flipV=0;" parent="1" vertex="1">
          <mxGeometry x="209" y="80" width="120" height="60" as="geometry" />
        </mxCell>
        <mxCell id="M2i2G8UK4aQcAIyvz-Gb-13" value="Server" style="rounded=1;whiteSpace=wrap;html=1;flipH=0;flipV=0;" parent="1" vertex="1">
          <mxGeometry x="444" y="80" width="120" height="60" as="geometry" />
        </mxCell>
        <mxCell id="M2i2G8UK4aQcAIyvz-Gb-14" value="DB" style="shape=cylinder3;whiteSpace=wrap;html=1;boundedLbl=1;backgroundOutline=1;size=15;flipH=0;flipV=0;" parent="1" vertex="1">
          <mxGeometry x="679" y="70" width="52.5" height="70" as="geometry" />
        </mxCell>
        <mxCell id="M2i2G8UK4aQcAIyvz-Gb-15" value="Actor" style="shape=umlActor;verticalLabelPosition=bottom;verticalAlign=top;html=1;outlineConnect=0;" parent="1" vertex="1">
          <mxGeometry x="82" y="80" width="30" height="60" as="geometry" />
        </mxCell>
        <mxCell id="M2i2G8UK4aQcAIyvz-Gb-16" value="" style="endArrow=classic;html=1;rounded=0;fontFamily=Verdana;" parent="1" edge="1">
          <mxGeometry width="50" height="50" relative="1" as="geometry">
            <mxPoint x="99" y="220" as="sourcePoint" />
            <mxPoint x="249" y="220" as="targetPoint" />
          </mxGeometry>
        </mxCell>
        <mxCell id="M2i2G8UK4aQcAIyvz-Gb-17" value="Type informations" style="edgeLabel;html=1;align=center;verticalAlign=middle;resizable=0;points=[];fontFamily=Verdana;" parent="M2i2G8UK4aQcAIyvz-Gb-16" vertex="1" connectable="0">
          <mxGeometry x="-0.2933" y="1" relative="1" as="geometry">
            <mxPoint x="17" as="offset" />
          </mxGeometry>
        </mxCell>
        <mxCell id="M2i2G8UK4aQcAIyvz-Gb-18" value="" style="endArrow=classic;html=1;rounded=0;fontFamily=Verdana;" parent="1" edge="1">
          <mxGeometry width="50" height="50" relative="1" as="geometry">
            <mxPoint x="280.9999999999991" y="310" as="sourcePoint" />
            <mxPoint x="480" y="310" as="targetPoint" />
          </mxGeometry>
        </mxCell>
        <mxCell id="M2i2G8UK4aQcAIyvz-Gb-19" value="Sign-up details" style="edgeLabel;html=1;align=center;verticalAlign=middle;resizable=0;points=[];fontFamily=Verdana;" parent="M2i2G8UK4aQcAIyvz-Gb-18" vertex="1" connectable="0">
          <mxGeometry x="-0.2933" y="1" relative="1" as="geometry">
            <mxPoint x="17" as="offset" />
          </mxGeometry>
        </mxCell>
        <mxCell id="M2i2G8UK4aQcAIyvz-Gb-20" value="" style="endArrow=classic;html=1;rounded=0;fontFamily=Verdana;" parent="1" edge="1">
          <mxGeometry width="50" height="50" relative="1" as="geometry">
            <mxPoint x="499" y="333" as="sourcePoint" />
            <mxPoint x="689" y="333" as="targetPoint" />
          </mxGeometry>
        </mxCell>
        <mxCell id="M2i2G8UK4aQcAIyvz-Gb-21" value="Check validaiton of inputs" style="edgeLabel;html=1;align=center;verticalAlign=middle;resizable=0;points=[];fontFamily=Verdana;" parent="M2i2G8UK4aQcAIyvz-Gb-20" vertex="1" connectable="0">
          <mxGeometry x="-0.2933" y="1" relative="1" as="geometry">
            <mxPoint x="34" y="-12" as="offset" />
          </mxGeometry>
        </mxCell>
        <mxCell id="M2i2G8UK4aQcAIyvz-Gb-22" value="" style="endArrow=classic;html=1;rounded=0;dashed=1;fontFamily=Verdana;" parent="1" edge="1">
          <mxGeometry width="50" height="50" relative="1" as="geometry">
            <mxPoint x="694" y="400" as="sourcePoint" />
            <mxPoint x="514" y="400" as="targetPoint" />
          </mxGeometry>
        </mxCell>
        <mxCell id="M2i2G8UK4aQcAIyvz-Gb-23" value="does not exist" style="edgeLabel;html=1;align=center;verticalAlign=middle;resizable=0;points=[];fontFamily=Verdana;" parent="M2i2G8UK4aQcAIyvz-Gb-22" vertex="1" connectable="0">
          <mxGeometry x="-0.2933" y="1" relative="1" as="geometry">
            <mxPoint x="-33" y="-3" as="offset" />
          </mxGeometry>
        </mxCell>
        <mxCell id="M2i2G8UK4aQcAIyvz-Gb-24" value="" style="endArrow=classic;html=1;rounded=0;dashed=1;fontFamily=Verdana;entryX=1.125;entryY=0.582;entryDx=0;entryDy=0;entryPerimeter=0;" parent="1" target="M2i2G8UK4aQcAIyvz-Gb-28" edge="1">
          <mxGeometry width="50" height="50" relative="1" as="geometry">
            <mxPoint x="494" y="490" as="sourcePoint" />
            <mxPoint x="289" y="490" as="targetPoint" />
          </mxGeometry>
        </mxCell>
        <mxCell id="M2i2G8UK4aQcAIyvz-Gb-25" value="Succesfull message" style="edgeLabel;html=1;align=center;verticalAlign=middle;resizable=0;points=[];fontFamily=Verdana;" parent="M2i2G8UK4aQcAIyvz-Gb-24" vertex="1" connectable="0">
          <mxGeometry x="-0.2933" y="1" relative="1" as="geometry">
            <mxPoint x="-34" y="-1" as="offset" />
          </mxGeometry>
        </mxCell>
        <mxCell id="M2i2G8UK4aQcAIyvz-Gb-26" value="" style="endArrow=classic;html=1;rounded=0;dashed=1;fontFamily=Verdana;" parent="1" edge="1">
          <mxGeometry width="50" height="50" relative="1" as="geometry">
            <mxPoint x="269" y="510" as="sourcePoint" />
            <mxPoint x="99" y="509" as="targetPoint" />
          </mxGeometry>
        </mxCell>
        <mxCell id="M2i2G8UK4aQcAIyvz-Gb-27" value="Redirect to Home Page" style="edgeLabel;html=1;align=center;verticalAlign=middle;resizable=0;points=[];fontFamily=Verdana;" parent="M2i2G8UK4aQcAIyvz-Gb-26" vertex="1" connectable="0">
          <mxGeometry x="-0.2933" y="1" relative="1" as="geometry">
            <mxPoint x="-27" y="-2" as="offset" />
          </mxGeometry>
        </mxCell>
        <mxCell id="M2i2G8UK4aQcAIyvz-Gb-28" value="" style="verticalLabelPosition=bottom;verticalAlign=top;html=1;shape=mxgraph.basic.rect;fillColor2=none;strokeWidth=1;size=20;indent=5;fontFamily=Verdana;" parent="1" vertex="1">
          <mxGeometry x="259" y="193" width="20" height="510" as="geometry" />
        </mxCell>
        <mxCell id="M2i2G8UK4aQcAIyvz-Gb-29" value="" style="verticalLabelPosition=bottom;verticalAlign=top;html=1;shape=mxgraph.basic.rect;fillColor2=none;strokeWidth=1;size=20;indent=5;fontFamily=Verdana;" parent="1" vertex="1">
          <mxGeometry x="693" y="323" width="20" height="147" as="geometry" />
        </mxCell>
        <mxCell id="M2i2G8UK4aQcAIyvz-Gb-30" value="" style="endArrow=none;dashed=1;html=1;dashPattern=1 3;strokeWidth=2;rounded=0;fontFamily=Verdana;" parent="1" edge="1">
          <mxGeometry width="50" height="50" relative="1" as="geometry">
            <mxPoint x="29" y="534.5799999999999" as="sourcePoint" />
            <mxPoint x="789" y="534.5799999999999" as="targetPoint" />
          </mxGeometry>
        </mxCell>
        <mxCell id="M2i2G8UK4aQcAIyvz-Gb-31" value="" style="verticalLabelPosition=bottom;verticalAlign=top;html=1;shape=mxgraph.basic.rect;fillColor2=none;strokeWidth=1;size=20;indent=5;fontFamily=Verdana;" parent="1" vertex="1">
          <mxGeometry x="494" y="290" width="20" height="220" as="geometry" />
        </mxCell>
        <mxCell id="M2i2G8UK4aQcAIyvz-Gb-32" value="" style="endArrow=classic;html=1;rounded=0;fontFamily=Verdana;" parent="1" edge="1">
          <mxGeometry width="50" height="50" relative="1" as="geometry">
            <mxPoint x="517" y="430" as="sourcePoint" />
            <mxPoint x="693.0000000000009" y="430" as="targetPoint" />
          </mxGeometry>
        </mxCell>
        <mxCell id="M2i2G8UK4aQcAIyvz-Gb-33" value="Insert user" style="edgeLabel;html=1;align=center;verticalAlign=middle;resizable=0;points=[];fontFamily=Verdana;" parent="M2i2G8UK4aQcAIyvz-Gb-32" vertex="1" connectable="0">
          <mxGeometry x="-0.2933" y="1" relative="1" as="geometry">
            <mxPoint x="17" as="offset" />
          </mxGeometry>
        </mxCell>
        <mxCell id="M2i2G8UK4aQcAIyvz-Gb-34" value="" style="endArrow=classic;html=1;rounded=0;dashed=1;fontFamily=Verdana;" parent="1" edge="1">
          <mxGeometry width="50" height="50" relative="1" as="geometry">
            <mxPoint x="693.0000000000009" y="460" as="sourcePoint" />
            <mxPoint x="519" y="460.4200000000001" as="targetPoint" />
          </mxGeometry>
        </mxCell>
        <mxCell id="M2i2G8UK4aQcAIyvz-Gb-35" value="Succesfull message" style="edgeLabel;html=1;align=center;verticalAlign=middle;resizable=0;points=[];fontFamily=Verdana;" parent="M2i2G8UK4aQcAIyvz-Gb-34" vertex="1" connectable="0">
          <mxGeometry x="-0.2933" y="1" relative="1" as="geometry">
            <mxPoint x="-28" y="-3" as="offset" />
          </mxGeometry>
        </mxCell>
        <mxCell id="M2i2G8UK4aQcAIyvz-Gb-36" value="" style="verticalLabelPosition=bottom;verticalAlign=top;html=1;shape=mxgraph.basic.rect;fillColor2=none;strokeWidth=1;size=20;indent=5;fontFamily=Verdana;" parent="1" vertex="1">
          <mxGeometry x="693" y="554" width="20" height="36" as="geometry" />
        </mxCell>
        <mxCell id="M2i2G8UK4aQcAIyvz-Gb-37" value="" style="verticalLabelPosition=bottom;verticalAlign=top;html=1;shape=mxgraph.basic.rect;fillColor2=none;strokeWidth=1;size=20;indent=5;fontFamily=Verdana;" parent="1" vertex="1">
          <mxGeometry x="494" y="554" width="20" height="46" as="geometry" />
        </mxCell>
        <mxCell id="M2i2G8UK4aQcAIyvz-Gb-38" value="" style="endArrow=none;dashed=1;html=1;rounded=0;fontFamily=Verdana;entryX=0.5;entryY=1;entryDx=0;entryDy=0;" parent="1" target="M2i2G8UK4aQcAIyvz-Gb-37" edge="1">
          <mxGeometry width="50" height="50" relative="1" as="geometry">
            <mxPoint x="504" y="750" as="sourcePoint" />
            <mxPoint x="503.5799999999999" y="140" as="targetPoint" />
          </mxGeometry>
        </mxCell>
        <mxCell id="M2i2G8UK4aQcAIyvz-Gb-39" value="" style="endArrow=classic;html=1;rounded=0;dashed=1;fontFamily=Verdana;" parent="1" edge="1">
          <mxGeometry width="50" height="50" relative="1" as="geometry">
            <mxPoint x="693.0000000000009" y="570" as="sourcePoint" />
            <mxPoint x="513.0000000000009" y="570" as="targetPoint" />
          </mxGeometry>
        </mxCell>
        <mxCell id="M2i2G8UK4aQcAIyvz-Gb-40" value="exist" style="edgeLabel;html=1;align=center;verticalAlign=middle;resizable=0;points=[];fontFamily=Verdana;" parent="M2i2G8UK4aQcAIyvz-Gb-39" vertex="1" connectable="0">
          <mxGeometry x="-0.2933" y="1" relative="1" as="geometry">
            <mxPoint x="-33" y="-3" as="offset" />
          </mxGeometry>
        </mxCell>
        <mxCell id="M2i2G8UK4aQcAIyvz-Gb-41" value="" style="endArrow=classic;html=1;rounded=0;dashed=1;fontFamily=Verdana;entryX=1.167;entryY=0.759;entryDx=0;entryDy=0;entryPerimeter=0;" parent="1" target="M2i2G8UK4aQcAIyvz-Gb-28" edge="1">
          <mxGeometry width="50" height="50" relative="1" as="geometry">
            <mxPoint x="494" y="580" as="sourcePoint" />
            <mxPoint x="314" y="580" as="targetPoint" />
          </mxGeometry>
        </mxCell>
        <mxCell id="M2i2G8UK4aQcAIyvz-Gb-42" value="error" style="edgeLabel;html=1;align=center;verticalAlign=middle;resizable=0;points=[];fontFamily=Verdana;" parent="M2i2G8UK4aQcAIyvz-Gb-41" vertex="1" connectable="0">
          <mxGeometry x="-0.2933" y="1" relative="1" as="geometry">
            <mxPoint x="-33" y="-3" as="offset" />
          </mxGeometry>
        </mxCell>
        <mxCell id="M2i2G8UK4aQcAIyvz-Gb-43" value="" style="endArrow=classic;html=1;rounded=0;dashed=1;fontFamily=Verdana;" parent="1" edge="1">
          <mxGeometry width="50" height="50" relative="1" as="geometry">
            <mxPoint x="259" y="612.0799999999999" as="sourcePoint" />
            <mxPoint x="99" y="612" as="targetPoint" />
          </mxGeometry>
        </mxCell>
        <mxCell id="M2i2G8UK4aQcAIyvz-Gb-44" value="Type again message" style="edgeLabel;html=1;align=center;verticalAlign=middle;resizable=0;points=[];fontFamily=Verdana;" parent="M2i2G8UK4aQcAIyvz-Gb-43" vertex="1" connectable="0">
          <mxGeometry x="-0.2933" y="1" relative="1" as="geometry">
            <mxPoint x="-22" y="-3" as="offset" />
          </mxGeometry>
        </mxCell>
        <mxCell id="M2i2G8UK4aQcAIyvz-Gb-45" value="" style="endArrow=none;dashed=1;html=1;rounded=0;fontFamily=Verdana;entryX=0.5;entryY=1;entryDx=0;entryDy=0;" parent="1" edge="1">
          <mxGeometry width="50" height="50" relative="1" as="geometry">
            <mxPoint x="97" y="750" as="sourcePoint" />
            <mxPoint x="96.57999999999902" y="160" as="targetPoint" />
          </mxGeometry>
        </mxCell>
        <mxCell id="M2i2G8UK4aQcAIyvz-Gb-48" value="Registration Sequence Diagram:" style="text;html=1;strokeColor=none;fillColor=none;align=left;verticalAlign=middle;whiteSpace=wrap;rounded=0;fontStyle=1;fontSize=16;" parent="1" vertex="1">
          <mxGeometry x="39" y="20" width="341" height="30" as="geometry" />
        </mxCell>
        <mxCell id="Yexyb0BpfmFyETItAoxo-3" value="" style="endArrow=none;dashed=1;html=1;rounded=0;fontFamily=Verdana;entryX=0.5;entryY=1;entryDx=0;entryDy=0;" edge="1" parent="1">
          <mxGeometry width="50" height="50" relative="1" as="geometry">
            <mxPoint x="708.0000000000009" y="1510" as="sourcePoint" />
            <mxPoint x="707.5799999999999" y="910" as="targetPoint" />
          </mxGeometry>
        </mxCell>
        <mxCell id="Yexyb0BpfmFyETItAoxo-4" value="" style="endArrow=none;dashed=1;html=1;rounded=0;fontFamily=Verdana;entryX=0.5;entryY=1;entryDx=0;entryDy=0;startArrow=none;" edge="1" parent="1" source="Yexyb0BpfmFyETItAoxo-31">
          <mxGeometry width="50" height="50" relative="1" as="geometry">
            <mxPoint x="508.58000000000004" y="1620" as="sourcePoint" />
            <mxPoint x="508.58000000000084" y="910" as="targetPoint" />
          </mxGeometry>
        </mxCell>
        <mxCell id="Yexyb0BpfmFyETItAoxo-5" value="" style="endArrow=none;dashed=1;html=1;rounded=0;fontFamily=Verdana;entryX=0.5;entryY=1;entryDx=0;entryDy=0;" edge="1" parent="1" target="Yexyb0BpfmFyETItAoxo-6">
          <mxGeometry width="50" height="50" relative="1" as="geometry">
            <mxPoint x="274" y="1520" as="sourcePoint" />
            <mxPoint x="434" y="830" as="targetPoint" />
          </mxGeometry>
        </mxCell>
        <mxCell id="Yexyb0BpfmFyETItAoxo-6" value="Log in Page" style="rounded=1;whiteSpace=wrap;html=1;flipH=0;flipV=0;" vertex="1" parent="1">
          <mxGeometry x="214" y="850" width="120" height="60" as="geometry" />
        </mxCell>
        <mxCell id="Yexyb0BpfmFyETItAoxo-7" value="Server" style="rounded=1;whiteSpace=wrap;html=1;flipH=0;flipV=0;" vertex="1" parent="1">
          <mxGeometry x="449" y="850" width="120" height="60" as="geometry" />
        </mxCell>
        <mxCell id="Yexyb0BpfmFyETItAoxo-8" value="DB" style="shape=cylinder3;whiteSpace=wrap;html=1;boundedLbl=1;backgroundOutline=1;size=15;flipH=0;flipV=0;" vertex="1" parent="1">
          <mxGeometry x="684" y="840" width="52.5" height="70" as="geometry" />
        </mxCell>
        <mxCell id="Yexyb0BpfmFyETItAoxo-9" value="Actor" style="shape=umlActor;verticalLabelPosition=bottom;verticalAlign=top;html=1;outlineConnect=0;" vertex="1" parent="1">
          <mxGeometry x="87" y="850" width="30" height="60" as="geometry" />
        </mxCell>
        <mxCell id="Yexyb0BpfmFyETItAoxo-10" value="" style="endArrow=classic;html=1;rounded=0;fontFamily=Verdana;" edge="1" parent="1">
          <mxGeometry width="50" height="50" relative="1" as="geometry">
            <mxPoint x="104" y="1020" as="sourcePoint" />
            <mxPoint x="254" y="1020" as="targetPoint" />
          </mxGeometry>
        </mxCell>
        <mxCell id="Yexyb0BpfmFyETItAoxo-11" value="Type informations" style="edgeLabel;html=1;align=center;verticalAlign=middle;resizable=0;points=[];fontFamily=Verdana;" vertex="1" connectable="0" parent="Yexyb0BpfmFyETItAoxo-10">
          <mxGeometry x="-0.2933" y="1" relative="1" as="geometry">
            <mxPoint x="17" as="offset" />
          </mxGeometry>
        </mxCell>
        <mxCell id="Yexyb0BpfmFyETItAoxo-12" value="" style="endArrow=classic;html=1;rounded=0;fontFamily=Verdana;" edge="1" parent="1">
          <mxGeometry width="50" height="50" relative="1" as="geometry">
            <mxPoint x="285.9999999999991" y="1080" as="sourcePoint" />
            <mxPoint x="485" y="1080" as="targetPoint" />
          </mxGeometry>
        </mxCell>
        <mxCell id="Yexyb0BpfmFyETItAoxo-13" value="Log in Details" style="edgeLabel;html=1;align=center;verticalAlign=middle;resizable=0;points=[];fontFamily=Verdana;" vertex="1" connectable="0" parent="Yexyb0BpfmFyETItAoxo-12">
          <mxGeometry x="-0.2933" y="1" relative="1" as="geometry">
            <mxPoint x="17" as="offset" />
          </mxGeometry>
        </mxCell>
        <mxCell id="Yexyb0BpfmFyETItAoxo-14" value="" style="endArrow=classic;html=1;rounded=0;fontFamily=Verdana;" edge="1" parent="1">
          <mxGeometry width="50" height="50" relative="1" as="geometry">
            <mxPoint x="504" y="1103" as="sourcePoint" />
            <mxPoint x="694" y="1103" as="targetPoint" />
          </mxGeometry>
        </mxCell>
        <mxCell id="Yexyb0BpfmFyETItAoxo-15" value="Check validition of inputs" style="edgeLabel;html=1;align=center;verticalAlign=middle;resizable=0;points=[];fontFamily=Verdana;" vertex="1" connectable="0" parent="Yexyb0BpfmFyETItAoxo-14">
          <mxGeometry x="-0.2933" y="1" relative="1" as="geometry">
            <mxPoint x="29" as="offset" />
          </mxGeometry>
        </mxCell>
        <mxCell id="Yexyb0BpfmFyETItAoxo-18" value="" style="endArrow=classic;html=1;rounded=0;dashed=1;fontFamily=Verdana;" edge="1" parent="1">
          <mxGeometry width="50" height="50" relative="1" as="geometry">
            <mxPoint x="490" y="1230" as="sourcePoint" />
            <mxPoint x="290" y="1230" as="targetPoint" />
            <Array as="points" />
          </mxGeometry>
        </mxCell>
        <mxCell id="Yexyb0BpfmFyETItAoxo-19" value="Succesfull message" style="edgeLabel;html=1;align=center;verticalAlign=middle;resizable=0;points=[];fontFamily=Verdana;" vertex="1" connectable="0" parent="Yexyb0BpfmFyETItAoxo-18">
          <mxGeometry x="-0.2933" y="1" relative="1" as="geometry">
            <mxPoint x="-34" y="-1" as="offset" />
          </mxGeometry>
        </mxCell>
        <mxCell id="Yexyb0BpfmFyETItAoxo-20" value="" style="endArrow=classic;html=1;rounded=0;dashed=1;fontFamily=Verdana;" edge="1" parent="1">
          <mxGeometry width="50" height="50" relative="1" as="geometry">
            <mxPoint x="274" y="1261" as="sourcePoint" />
            <mxPoint x="104" y="1260" as="targetPoint" />
          </mxGeometry>
        </mxCell>
        <mxCell id="Yexyb0BpfmFyETItAoxo-21" value="Redirect to Home Page" style="edgeLabel;html=1;align=center;verticalAlign=middle;resizable=0;points=[];fontFamily=Verdana;" vertex="1" connectable="0" parent="Yexyb0BpfmFyETItAoxo-20">
          <mxGeometry x="-0.2933" y="1" relative="1" as="geometry">
            <mxPoint x="-27" y="-12" as="offset" />
          </mxGeometry>
        </mxCell>
        <mxCell id="Yexyb0BpfmFyETItAoxo-22" value="" style="verticalLabelPosition=bottom;verticalAlign=top;html=1;shape=mxgraph.basic.rect;fillColor2=none;strokeWidth=1;size=20;indent=5;fontFamily=Verdana;" vertex="1" parent="1">
          <mxGeometry x="264" y="1000" width="20" height="473" as="geometry" />
        </mxCell>
        <mxCell id="Yexyb0BpfmFyETItAoxo-23" value="" style="verticalLabelPosition=bottom;verticalAlign=top;html=1;shape=mxgraph.basic.rect;fillColor2=none;strokeWidth=1;size=20;indent=5;fontFamily=Verdana;" vertex="1" parent="1">
          <mxGeometry x="698" y="1093" width="20" height="147" as="geometry" />
        </mxCell>
        <mxCell id="Yexyb0BpfmFyETItAoxo-24" value="" style="endArrow=none;dashed=1;html=1;dashPattern=1 3;strokeWidth=2;rounded=0;fontFamily=Verdana;" edge="1" parent="1">
          <mxGeometry width="50" height="50" relative="1" as="geometry">
            <mxPoint x="34" y="1304.58" as="sourcePoint" />
            <mxPoint x="794" y="1304.58" as="targetPoint" />
          </mxGeometry>
        </mxCell>
        <mxCell id="Yexyb0BpfmFyETItAoxo-25" value="" style="verticalLabelPosition=bottom;verticalAlign=top;html=1;shape=mxgraph.basic.rect;fillColor2=none;strokeWidth=1;size=20;indent=5;fontFamily=Verdana;" vertex="1" parent="1">
          <mxGeometry x="499" y="1070" width="20" height="190" as="geometry" />
        </mxCell>
        <mxCell id="Yexyb0BpfmFyETItAoxo-26" value="" style="endArrow=classic;html=1;rounded=0;fontFamily=Verdana;" edge="1" parent="1">
          <mxGeometry width="50" height="50" relative="1" as="geometry">
            <mxPoint x="522" y="1180" as="sourcePoint" />
            <mxPoint x="698.0000000000009" y="1180" as="targetPoint" />
          </mxGeometry>
        </mxCell>
        <mxCell id="Yexyb0BpfmFyETItAoxo-27" value="Insert user" style="edgeLabel;html=1;align=center;verticalAlign=middle;resizable=0;points=[];fontFamily=Verdana;" vertex="1" connectable="0" parent="Yexyb0BpfmFyETItAoxo-26">
          <mxGeometry x="-0.2933" y="1" relative="1" as="geometry">
            <mxPoint x="17" as="offset" />
          </mxGeometry>
        </mxCell>
        <mxCell id="Yexyb0BpfmFyETItAoxo-28" value="" style="endArrow=classic;html=1;rounded=0;dashed=1;fontFamily=Verdana;" edge="1" parent="1">
          <mxGeometry width="50" height="50" relative="1" as="geometry">
            <mxPoint x="698.0000000000009" y="1210" as="sourcePoint" />
            <mxPoint x="524" y="1210.42" as="targetPoint" />
          </mxGeometry>
        </mxCell>
        <mxCell id="Yexyb0BpfmFyETItAoxo-29" value="Succesfull message" style="edgeLabel;html=1;align=center;verticalAlign=middle;resizable=0;points=[];fontFamily=Verdana;" vertex="1" connectable="0" parent="Yexyb0BpfmFyETItAoxo-28">
          <mxGeometry x="-0.2933" y="1" relative="1" as="geometry">
            <mxPoint x="-28" y="-3" as="offset" />
          </mxGeometry>
        </mxCell>
        <mxCell id="Yexyb0BpfmFyETItAoxo-30" value="" style="verticalLabelPosition=bottom;verticalAlign=top;html=1;shape=mxgraph.basic.rect;fillColor2=none;strokeWidth=1;size=20;indent=5;fontFamily=Verdana;" vertex="1" parent="1">
          <mxGeometry x="698" y="1324" width="20" height="36" as="geometry" />
        </mxCell>
        <mxCell id="Yexyb0BpfmFyETItAoxo-31" value="" style="verticalLabelPosition=bottom;verticalAlign=top;html=1;shape=mxgraph.basic.rect;fillColor2=none;strokeWidth=1;size=20;indent=5;fontFamily=Verdana;" vertex="1" parent="1">
          <mxGeometry x="499" y="1330" width="20" height="56" as="geometry" />
        </mxCell>
        <mxCell id="Yexyb0BpfmFyETItAoxo-32" value="" style="endArrow=none;dashed=1;html=1;rounded=0;fontFamily=Verdana;entryX=0.5;entryY=1;entryDx=0;entryDy=0;" edge="1" parent="1" target="Yexyb0BpfmFyETItAoxo-31">
          <mxGeometry width="50" height="50" relative="1" as="geometry">
            <mxPoint x="509" y="1520" as="sourcePoint" />
            <mxPoint x="508.5799999999999" y="910" as="targetPoint" />
          </mxGeometry>
        </mxCell>
        <mxCell id="Yexyb0BpfmFyETItAoxo-33" value="" style="endArrow=classic;html=1;rounded=0;dashed=1;fontFamily=Verdana;" edge="1" parent="1">
          <mxGeometry width="50" height="50" relative="1" as="geometry">
            <mxPoint x="700" y="1340" as="sourcePoint" />
            <mxPoint x="518.0000000000009" y="1340" as="targetPoint" />
          </mxGeometry>
        </mxCell>
        <mxCell id="Yexyb0BpfmFyETItAoxo-34" value="invalid" style="edgeLabel;html=1;align=center;verticalAlign=middle;resizable=0;points=[];fontFamily=Verdana;" vertex="1" connectable="0" parent="Yexyb0BpfmFyETItAoxo-33">
          <mxGeometry x="-0.2933" y="1" relative="1" as="geometry">
            <mxPoint x="-33" y="-3" as="offset" />
          </mxGeometry>
        </mxCell>
        <mxCell id="Yexyb0BpfmFyETItAoxo-35" value="" style="endArrow=classic;html=1;rounded=0;dashed=1;fontFamily=Verdana;exitX=-0.15;exitY=0.607;exitDx=0;exitDy=0;exitPerimeter=0;" edge="1" parent="1" source="Yexyb0BpfmFyETItAoxo-31">
          <mxGeometry width="50" height="50" relative="1" as="geometry">
            <mxPoint x="499" y="1350" as="sourcePoint" />
            <mxPoint x="290" y="1363" as="targetPoint" />
          </mxGeometry>
        </mxCell>
        <mxCell id="Yexyb0BpfmFyETItAoxo-36" value="error" style="edgeLabel;html=1;align=center;verticalAlign=middle;resizable=0;points=[];fontFamily=Verdana;" vertex="1" connectable="0" parent="Yexyb0BpfmFyETItAoxo-35">
          <mxGeometry x="-0.2933" y="1" relative="1" as="geometry">
            <mxPoint x="-33" y="-3" as="offset" />
          </mxGeometry>
        </mxCell>
        <mxCell id="Yexyb0BpfmFyETItAoxo-37" value="" style="endArrow=classic;html=1;rounded=0;dashed=1;fontFamily=Verdana;" edge="1" parent="1">
          <mxGeometry width="50" height="50" relative="1" as="geometry">
            <mxPoint x="264" y="1382.08" as="sourcePoint" />
            <mxPoint x="104" y="1382" as="targetPoint" />
          </mxGeometry>
        </mxCell>
        <mxCell id="Yexyb0BpfmFyETItAoxo-38" value="Type again message" style="edgeLabel;html=1;align=center;verticalAlign=middle;resizable=0;points=[];fontFamily=Verdana;" vertex="1" connectable="0" parent="Yexyb0BpfmFyETItAoxo-37">
          <mxGeometry x="-0.2933" y="1" relative="1" as="geometry">
            <mxPoint x="-17" y="-3" as="offset" />
          </mxGeometry>
        </mxCell>
        <mxCell id="Yexyb0BpfmFyETItAoxo-39" value="" style="endArrow=none;dashed=1;html=1;rounded=0;fontFamily=Verdana;entryX=0.5;entryY=1;entryDx=0;entryDy=0;" edge="1" parent="1">
          <mxGeometry width="50" height="50" relative="1" as="geometry">
            <mxPoint x="102" y="1460" as="sourcePoint" />
            <mxPoint x="101.57999999999902" y="930" as="targetPoint" />
          </mxGeometry>
        </mxCell>
        <mxCell id="Yexyb0BpfmFyETItAoxo-43" value="Log in Sequence Diagram:" style="text;html=1;strokeColor=none;fillColor=none;align=left;verticalAlign=middle;whiteSpace=wrap;rounded=0;fontStyle=1;fontSize=16;" vertex="1" parent="1">
          <mxGeometry x="44" y="780" width="341" height="30" as="geometry" />
        </mxCell>
      </root>
    </mxGraphModel>
  </diagram>
</mxfile>
